HIERARCHY
ROOT root
{
	OFFSET 0.000000 0.000000 0.000000
	CHANNELS 6 Xposition Yposition Zposition Zrotation Yrotation Xrotation
	JOINT lhip
	{
		OFFSET 0.058581 -0.082280 -0.017664
		CHANNELS 3 Zrotation Yrotation Xrotation
		JOINT lknee
		{
			OFFSET 0.043451 -0.386469 0.008037
			CHANNELS 3 Zrotation Yrotation Xrotation
			JOINT lankle
			{
				OFFSET -0.014790 -0.426874 -0.037428
				CHANNELS 3 Zrotation Yrotation Xrotation
				JOINT ltoe
				{
					OFFSET 0.041054 -0.060286 0.122042
					CHANNELS 3 Zrotation Yrotation Xrotation
					End Site
					{
						OFFSET 0.000000 0.000000 0.000000
					}
				}
			}
		}
	}
	JOINT rhip
	{
		OFFSET -0.060310 -0.090513 -0.013543
		CHANNELS 3 Zrotation Yrotation Xrotation
		JOINT rknee
		{
			OFFSET -0.043257 -0.383688 -0.004843
			CHANNELS 3 Zrotation Yrotation Xrotation
			JOINT rankle
			{
				OFFSET 0.019056 -0.420046 -0.034562
				CHANNELS 3 Zrotation Yrotation Xrotation
				JOINT rtoe
				{
					OFFSET -0.034840 -0.062106 0.130323
					CHANNELS 3 Zrotation Yrotation Xrotation
					End Site
					{
						OFFSET 0.000000 0.000000 0.000000
					}
				}
			}
		}
	}
	JOINT lowerback
	{
		OFFSET 0.004439 0.124404 -0.038385
		CHANNELS 3 Zrotation Yrotation Xrotation
		JOINT upperback
		{
			OFFSET 0.004488 0.137956 0.026820
			CHANNELS 3 Zrotation Yrotation Xrotation
			JOINT chest
			{
				OFFSET -0.002265 0.056032 0.002855
				CHANNELS 3 Zrotation Yrotation Xrotation
				JOINT lowerneck
				{
					OFFSET -0.013390 0.211636 -0.033468
					CHANNELS 3 Zrotation Yrotation Xrotation
					JOINT upperneck
					{
						OFFSET 0.010113 0.088937 0.050410
						CHANNELS 3 Zrotation Yrotation Xrotation
						End Site
						{
							OFFSET 0.000000 0.000000 0.000000
						}
					}
				}
				JOINT lclavicle
				{
					OFFSET 0.071702 0.114000 -0.018898
					CHANNELS 3 Zrotation Yrotation Xrotation
					JOINT lshoulder
					{
						OFFSET 0.122921 0.045205 -0.019046
						CHANNELS 3 Zrotation Yrotation Xrotation
						JOINT lelbow
						{
							OFFSET 0.255332 -0.015649 -0.022946
							CHANNELS 3 Zrotation Yrotation Xrotation
							JOINT lwrist
							{
								OFFSET 0.265709 0.012698 -0.007375
								CHANNELS 3 Zrotation Yrotation Xrotation
								End Site
								{
									OFFSET 0.000000 0.000000 0.000000
								}
							}
						}
					}
				}
				JOINT rclavicle
				{
					OFFSET -0.082954 0.112472 -0.023707
					CHANNELS 3 Zrotation Yrotation Xrotation
					JOINT rshoulder
					{
						OFFSET -0.113228 0.046853 -0.008472
						CHANNELS 3 Zrotation Yrotation Xrotation
						JOINT relbow
						{
							OFFSET -0.260127 -0.014369 -0.031269
							CHANNELS 3 Zrotation Yrotation Xrotation
							JOINT rwrist
							{
								OFFSET -0.269108 0.006794 -0.006027
								CHANNELS 3 Zrotation Yrotation Xrotation
								End Site
								{
									OFFSET 0.000000 0.000000 0.000000
								}
							}
						}
					}
				}
			}
		}
	}
}
MOTION
Frames: 17
Frame Time: 0.033333
1.259678 1.163743 1.033174 124.486173 -0.832559 85.020105 -1.629248 -1.388141 -2.396259 -2.169580 -2.721737 17.230506 -2.590114 2.773867 -1.503311 0.000000 -0.000000 0.000000 0.149269 -2.686325 -7.504215 -5.575813 -5.686053 25.083268 4.755558 -1.928645 -1.711335 0.000000 -0.000000 0.000000 2.070752 1.758879 9.682385 1.942506 0.504558 -2.381899 1.400962 -0.298144 -3.817481 -2.804224 9.243562 -13.546468 -3.399266 11.391435 10.586477 -23.103069 -0.532826 -5.154362 -55.459256 -15.827505 13.473938 165.192126 -67.834900 -137.856980 14.070690 -15.871552 -18.154710 23.044549 6.190591 -5.917733 61.966981 13.375824 20.451635 -99.496058 71.467837 -82.018722 -6.694144 15.307447 -3.663608 
1.270657 1.170141 1.039810 123.919365 -0.666153 86.820058 -1.717064 -1.404578 -1.544303 -1.748749 -3.551094 13.151089 -1.658990 3.856101 0.533703 0.000000 -0.000000 0.000000 -0.144877 -3.071148 -6.756126 -4.567678 -5.816712 21.210608 5.337694 -1.194646 0.796884 0.000000 -0.000000 0.000000 2.522957 1.611963 8.363636 2.155089 0.663232 -3.033930 0.870583 -0.149049 -3.055078 -1.921145 11.515853 -13.665988 -4.787529 10.968788 10.152105 -23.912094 1.512160 -5.336728 -53.466767 -14.923317 14.355407 165.950138 -67.967952 -139.189921 18.432892 -13.890422 -17.493350 24.855914 4.548058 -6.082867 61.044787 13.280452 22.348022 -102.005856 71.423490 -84.128220 -8.261558 14.063340 -6.761998 
1.281179 1.175960 1.041214 123.310501 -0.374887 88.089558 -1.219977 -1.355189 -0.823439 -1.915571 -3.383019 10.441108 -1.352759 4.213979 1.611806 0.000000 -0.000000 0.000000 -0.307107 -2.944388 -5.991823 -3.714562 -6.146624 18.582248 5.678219 -0.588302 1.993347 0.000000 -0.000000 0.000000 2.834048 1.575354 7.524516 2.486207 1.054158 -3.074701 0.526223 -0.204395 -2.829666 -0.966024 13.619270 -13.524496 -6.081828 10.493933 10.037179 -25.041071 3.416709 -4.953104 -53.115627 -13.733397 14.809475 163.664797 -69.607033 -137.434414 19.518727 -14.318592 -17.316095 26.451332 3.116679 -5.705831 59.404413 13.079370 23.418740 -99.218089 71.800064 -81.165522 -9.463841 13.877382 -8.826158 
1.291714 1.180824 1.039550 122.969639 -0.072752 88.978331 -0.546903 -1.176852 -0.231849 -2.203400 -3.874528 8.809115 -1.660374 4.340678 2.050193 0.000000 -0.000000 0.000000 -0.181729 -3.035303 -5.303237 -3.093830 -5.565873 16.899183 5.701114 -0.587108 1.966171 0.000000 -0.000000 0.000000 2.834803 1.557247 7.020825 2.732690 1.218710 -2.924688 0.669500 -0.262865 -2.744988 -0.517107 14.490533 -13.581003 -6.331587 11.441993 10.373176 -26.606129 4.764369 -4.600898 -51.958568 -11.855376 14.719980 161.375764 -72.767084 -136.326896 18.860210 -14.782514 -16.386738 27.910109 2.089488 -5.339721 57.122949 12.292484 23.053918 -91.496222 72.911157 -74.311384 -9.177172 14.060324 -8.039461 
1.298892 1.184479 1.036072 122.386310 -0.042710 89.610836 -0.375338 -1.270337 0.032854 -2.239958 -5.123032 8.104330 -1.756510 4.888224 1.797128 0.000000 -0.000000 0.000000 -0.288375 -2.351413 -5.151570 -2.645201 -4.777576 16.323453 5.755386 -1.012386 1.515500 0.000000 -0.000000 0.000000 2.803299 1.186703 7.683318 2.431473 1.829915 -3.587071 0.708609 -0.357147 -2.404743 0.108685 15.366850 -13.824774 -6.397868 12.144007 11.108553 -27.657399 6.191342 -4.674681 -51.533401 -10.011703 14.583780 155.468711 -77.836254 -131.212027 17.018788 -14.899985 -15.006906 29.171963 1.188093 -5.279799 55.300083 11.517668 22.809234 -73.514342 73.085096 -57.437487 -8.412273 13.820526 -6.667063 
1.307721 1.188503 1.033041 122.493102 0.260341 90.226641 0.167202 -1.228156 0.227861 -2.397660 -6.120759 7.704426 -1.698234 5.005224 1.312568 0.000000 -0.000000 0.000000 0.132824 -2.502719 -4.636185 -2.419774 -3.851132 15.478523 5.341874 -1.460279 1.023152 0.000000 -0.000000 0.000000 2.857747 1.124656 6.884123 2.647065 1.562120 -2.752977 0.767510 -0.590596 -2.183028 0.284039 15.774052 -13.212696 -6.500143 13.068658 10.657198 -28.810070 6.996335 -4.111851 -51.539150 -8.206473 14.228085 129.749983 -83.369337 -105.523144 13.507112 -14.290809 -13.211080 29.749193 0.497319 -4.679847 54.218498 10.953095 21.968872 -51.201055 70.305709 -36.118215 -5.738138 12.654518 -6.364511 
1.314511 1.192118 1.031038 122.147769 0.434252 90.730943 0.335598 -1.080074 0.367425 -2.459226 -6.658255 7.441072 -1.445118 5.417360 0.787357 0.000000 -0.000000 0.000000 0.319350 -2.188584 -4.660406 -2.216122 -3.377314 15.469630 5.213524 -1.954014 0.238517 0.000000 -0.000000 0.000000 2.958577 1.010802 6.738431 2.561504 1.715449 -2.282018 0.782777 -0.619027 -2.101189 0.367836 16.345051 -12.495524 -6.561829 13.768347 10.169805 -29.464556 7.485089 -3.695944 -52.398194 -6.454794 13.741700 52.260485 -83.474487 -28.221873 9.026088 -12.725929 -10.045175 30.016051 0.141164 -4.039682 53.944009 9.734321 21.208366 -37.159211 64.749618 -23.335366 -1.725218 8.955856 -6.965140 
1.320006 1.195630 1.030516 121.572022 0.531583 91.245757 0.246380 -1.033357 0.490018 -2.277672 -7.102566 7.033328 -0.977025 6.069017 0.653261 0.000000 -0.000000 0.000000 0.425341 -1.853714 -4.790647 -2.024065 -2.715533 15.372335 5.076479 -2.547188 0.008907 0.000000 -0.000000 0.000000 3.108230 1.116569 6.856864 2.361135 1.898059 -1.929107 0.727961 -0.375081 -2.211593 0.226663 16.673990 -11.541500 -6.300978 14.474442 9.647969 -29.998224 6.893243 -3.058779 -52.958616 -4.590801 13.567942 22.999660 -76.412957 -0.104842 6.923199 -10.837621 -7.928967 30.184524 0.412920 -2.807047 54.047599 7.830335 20.217289 -31.575476 58.552148 -19.211866 -0.775643 5.489506 -6.579721 
1.325245 1.198526 1.031064 121.257650 0.581988 91.878690 0.234406 -0.901759 0.365314 -2.199462 -7.534997 6.656944 -0.765218 6.448673 0.920744 0.000000 -0.000000 0.000000 0.480810 -1.808867 -4.976723 -1.816021 -2.197263 15.018078 4.814062 -2.988612 0.135356 0.000000 -0.000000 0.000000 3.235492 1.306473 6.917386 2.128852 2.059335 -1.883090 0.573139 -0.446884 -2.090362 0.280620 17.283819 -10.647171 -6.397398 15.060006 9.392479 -30.483027 6.971449 -2.487120 -53.136754 -3.785951 13.405713 11.734742 -67.792731 10.213735 5.711835 -10.601518 -6.413803 30.560984 0.028002 -1.992052 54.425865 6.892390 19.510608 -25.894183 51.293869 -15.416130 -3.073308 5.771965 -5.572654 
1.330267 1.201030 1.032439 121.060396 0.559132 92.488900 0.349583 -0.722051 0.211141 -2.341890 -7.392107 6.193953 -1.020086 6.404530 1.683801 0.000000 -0.000000 0.000000 0.455690 -1.677746 -5.151682 -1.720462 -2.007649 14.656254 4.632464 -3.051557 0.548953 0.000000 -0.000000 0.000000 3.154299 1.323209 6.878261 1.993364 2.035567 -1.790325 0.433421 -0.499489 -1.985541 0.345068 18.037252 -9.557023 -6.240823 15.814060 9.459072 -30.862039 7.045334 -2.035054 -53.368230 -3.350879 13.380747 6.944903 -58.023185 13.040308 4.318572 -12.087648 -5.558719 30.843567 -0.515947 -1.506834 55.083546 6.550157 18.909757 -21.016296 42.934347 -12.976451 -2.020571 6.246506 -7.018610 
1.334638 1.203588 1.034219 120.831020 0.415209 93.068535 0.224306 -0.654119 0.036160 -2.306380 -7.702215 5.828661 -1.082243 6.452618 2.591042 0.000000 -0.000000 0.000000 0.292118 -1.625915 -5.405575 -1.643160 -1.811960 14.340965 4.415365 -3.257570 0.906312 0.000000 -0.000000 0.000000 2.931441 1.354424 6.783470 1.903766 1.836208 -1.551097 0.306260 -0.502536 -1.955846 0.532462 19.073575 -8.288208 -6.061096 16.700318 9.715217 -31.103782 6.805859 -1.636715 -53.713762 -2.460230 13.267318 5.156061 -49.107635 13.927224 1.182022 -11.345909 -4.126653 31.144268 -0.774906 -1.201487 56.340730 6.450735 17.839830 -18.990234 33.667391 -12.952848 0.993308 5.043350 -7.829972 
1.338834 1.205980 1.035927 120.682883 0.331964 93.329607 0.024872 -0.305103 0.089187 -2.115745 -8.677384 5.584375 -0.523973 6.650828 3.387416 0.000000 -0.000000 0.000000 0.131753 -1.934058 -5.279494 -1.167350 -0.809677 13.936826 4.080758 -4.088758 1.120152 0.000000 -0.000000 0.000000 2.778976 1.107360 7.243003 1.502292 1.841204 -2.321917 0.512054 -0.423224 -1.183362 0.458979 19.935241 -6.801135 -5.797109 17.629509 9.640139 -30.802002 7.229902 -0.457297 -54.880337 -3.238559 12.547156 3.939964 -39.660156 14.488446 -2.295266 -9.865173 -2.122775 31.053091 -1.230158 -0.797295 57.406532 7.117489 16.347159 -17.237802 24.464717 -12.128717 2.026381 3.488684 -5.873226 
1.343260 1.207591 1.037410 120.336051 0.455782 93.612779 0.225629 -0.134117 0.014551 -2.165219 -8.865309 5.503767 -0.397178 6.623707 3.932242 0.000000 -0.000000 0.000000 0.276411 -2.011919 -5.243481 -0.929851 -0.242699 13.607879 3.885985 -4.394021 1.705686 0.000000 -0.000000 0.000000 2.697202 1.029821 7.450878 1.308287 1.882334 -2.444933 0.652711 -0.325902 -0.836313 0.624274 21.327538 -5.566719 -5.812397 19.043611 9.806082 -30.991765 7.359545 0.223765 -55.186123 -3.383482 11.959541 3.206045 -31.255121 14.059769 -4.448040 -10.126333 -0.259335 31.563088 -1.436628 -0.226696 57.427499 7.603369 15.419997 -16.496735 16.120763 -11.673557 1.661433 2.954494 -3.981021 
1.347456 1.209374 1.038532 120.020553 0.495044 93.801024 0.300532 -0.126197 0.031859 -2.222614 -9.214608 5.477237 -0.275070 6.782388 4.244656 0.000000 -0.000000 0.000000 0.342646 -1.937529 -5.111183 -0.827888 0.126084 13.341084 3.730166 -4.354099 2.024860 0.000000 -0.000000 0.000000 2.576540 1.126420 7.545471 1.191743 1.916426 -2.131453 0.688973 -0.295806 -0.728912 0.743541 22.808386 -4.148800 -5.886088 20.866876 9.660300 -31.046997 7.252465 0.462346 -55.414051 -2.691972 11.370472 3.034192 -24.803313 13.935221 -6.532427 -9.736672 0.950454 31.596509 -1.583913 0.345033 57.339291 7.340410 14.781374 -15.824576 10.159662 -11.160217 2.314052 2.153430 -3.633826 
1.350406 1.211259 1.039067 119.589560 0.494503 94.173221 0.231944 -0.236302 -0.159315 -2.205677 -9.322858 5.478202 0.096062 7.021796 4.427002 0.000000 -0.000000 0.000000 0.317074 -1.935321 -5.357882 -0.754039 0.464943 13.304204 3.627481 -4.246526 2.130315 0.000000 -0.000000 0.000000 2.684330 1.373585 7.502520 0.957488 2.048647 -1.747467 0.589902 -0.140298 -0.689100 0.512159 24.399499 -2.770837 -5.964487 22.851644 9.104566 -30.953089 7.331126 0.756136 -55.420502 -1.839246 10.524614 3.079136 -20.623642 13.992820 -9.283122 -8.694109 2.044322 31.446936 -2.258584 1.033784 57.309543 6.399421 13.881940 -15.920369 7.929697 -11.281517 4.007073 0.955705 -3.878454 
1.353660 1.212958 1.039473 119.445977 0.483249 94.396432 0.192216 -0.247789 -0.086321 -2.182340 -9.600378 5.293110 0.212101 7.207571 4.450174 0.000000 -0.000000 0.000000 0.334742 -1.896840 -5.346609 -0.746450 0.689910 13.198184 3.611404 -4.291344 2.217464 0.000000 -0.000000 0.000000 2.786595 1.513331 7.464827 0.758941 2.194042 -1.395366 0.492654 -0.036521 -0.474281 0.323984 25.985957 -1.302025 -6.126292 24.985299 8.486270 -30.755176 7.891564 0.982936 -54.997114 -1.155124 9.747752 2.841622 -18.752571 14.181085 -11.196124 -7.954626 2.408663 31.158861 -3.455209 1.503805 56.944436 5.190929 13.303130 -15.504805 8.336989 -11.436636 5.800612 0.735552 -4.873207 
1.356129 1.214947 1.039727 119.347080 0.411273 94.680676 0.012980 -0.248165 -0.106870 -2.144095 -9.765705 5.140125 0.305209 7.412063 4.544353 0.000000 -0.000000 0.000000 0.217059 -2.032591 -5.478508 -0.713325 0.935035 13.165667 3.681250 -4.334163 2.362677 0.000000 -0.000000 0.000000 2.836274 1.576217 7.384576 0.623389 2.335667 -1.278717 0.417126 0.095722 -0.072791 0.267695 27.559040 -0.118211 -6.151234 26.994655 8.336224 -30.649488 8.688429 0.995950 -54.331402 -0.498152 9.137391 2.557101 -18.464417 14.411838 -12.229239 -7.761204 2.273970 30.707192 -4.881897 1.820021 56.414806 4.134743 13.083362 -14.878915 10.049352 -11.266041 6.443399 1.508499 -5.503668 
